<?xml version="1.0" encoding="UTF-8"?>
<!DOCTYPE svg PUBLIC "-//W3C//DTD SVG 1.1//EN" "http://www.w3.org/Graphics/SVG/1.1/DTD/svg11.dtd">
<svg xmlns="http://www.w3.org/2000/svg" version="1.1" width="115px" height="115px" style="shape-rendering:geometricPrecision; text-rendering:geometricPrecision; image-rendering:optimizeQuality; fill-rule:evenodd; clip-rule:evenodd" xmlns:xlink="http://www.w3.org/1999/xlink">
<g><path style="opacity:0.798" fill="#000000" d="M 51.5,8.5 C 66.8026,7.30344 73.9693,14.3034 73,29.5C 71.6502,34.1849 68.8168,37.6849 64.5,40C 78.9719,46.382 93.6385,52.382 108.5,58C 109.667,59.1667 110.833,60.3333 112,61.5C 112.667,68.8333 112.667,76.1667 112,83.5C 100.609,89.4457 89.1091,95.2791 77.5,101C 65.7537,106.122 53.7537,106.789 41.5,103C 28.102,96.8841 14.9353,90.3841 2,83.5C 1.33333,76.1667 1.33333,68.8333 2,61.5C 3.16667,60.3333 4.33333,59.1667 5.5,58C 20.3615,52.382 35.0281,46.382 49.5,40C 40.2824,33.7999 38.1158,25.6332 43,15.5C 45.4412,12.5464 48.2745,10.2131 51.5,8.5 Z M 55.5,13.5 C 67.5801,15.8263 70.5801,22.3263 64.5,33C 57.5206,37.1019 51.6872,35.9353 47,29.5C 44.8955,21.3687 47.7289,16.0353 55.5,13.5 Z M 55.5,41.5 C 56.5,41.5 57.5,41.5 58.5,41.5C 58.5,50.1667 58.5,58.8333 58.5,67.5C 57.5,67.5 56.5,67.5 55.5,67.5C 55.5,58.8333 55.5,50.1667 55.5,41.5 Z M 64.5,46.5 C 79.0703,52.1185 93.4036,58.2852 107.5,65C 94.4766,72.1784 81.1433,78.845 67.5,85C 60.5,87 53.5,87 46.5,85C 32.8567,78.845 19.5234,72.1784 6.5,65C 20.4742,58.2863 34.8075,52.453 49.5,47.5C 49.3337,54.5079 49.5004,61.5079 50,68.5C 54.6667,75.1667 59.3333,75.1667 64,68.5C 64.4997,61.1742 64.6663,53.8409 64.5,46.5 Z M 6.5,72.5 C 18.8071,78.3195 31.1404,84.1528 43.5,90C 52.5,93.3333 61.5,93.3333 70.5,90C 82.743,84.2949 94.9096,78.4616 107,72.5C 107.818,75.2272 107.652,77.8938 106.5,80.5C 96.3779,85.0609 86.3779,89.8943 76.5,95C 66.2311,100.59 55.5645,101.59 44.5,98C 32.1667,92.1667 19.8333,86.3333 7.5,80.5C 6.51998,77.9135 6.18665,75.2469 6.5,72.5 Z"/></g>
<g><path style="opacity:0.82" fill="#000000" d="M 20.5,61.5 C 24.1817,61.3347 27.8484,61.5014 31.5,62C 34.0867,63.5251 34.9201,65.6917 34,68.5C 29.4793,71.8118 24.646,72.3118 19.5,70C 16.8146,66.8833 17.148,64.05 20.5,61.5 Z"/></g>
</svg>
